<svg width="22" height="23" viewBox="0 0 22 23" fill="none" xmlns="http://www.w3.org/2000/svg">
<path d="M6.67383 19.2812C6.67383 19.7188 6.73809 20.4623 7.30814 20.8581C7.87819 21.254 8.57833 21.4688 9.29883 21.4688C10.0193 21.4688 10.7195 21.254 11.2895 20.8581C11.8596 20.4623 11.9238 19.7188 11.9238 19.2812" stroke="#959595" stroke-width="1.5" stroke-linecap="round" stroke-linejoin="round"/>
<path d="M3.39194 10.9688C3.39194 7.70682 6.03626 5.0625 9.29819 5.0625V3.75C5.31139 3.75 2.07944 6.98194 2.07944 10.9688V13.6877C2.07944 14.3367 1.86896 14.9682 1.47957 15.4873L1.24939 15.7942C1.00494 16.1202 0.643013 16.6956 0.780082 17.3702C0.998497 18.4453 1.93392 18.8262 2.70732 18.9654C3.34506 19.0802 4.08559 19.0719 4.67534 19.0653C4.80346 19.0639 4.92449 19.0625 5.03577 19.0625H9.29819V17.75H5.03577C4.89286 17.75 4.74935 17.7514 4.60627 17.7528C4.02061 17.7585 3.44201 17.7641 2.93985 17.6737C2.31209 17.5607 2.11696 17.3583 2.06631 17.1089C2.0596 17.0759 2.05912 17.0199 2.09602 16.9243C2.13435 16.8251 2.20275 16.7106 2.29939 16.5817L2.52957 16.2748C3.08935 15.5285 3.39194 14.6207 3.39194 13.6877V10.9688Z" fill="#959595"/>
<path d="M15.2051 10.9688C15.2051 7.70682 12.5601 5.0625 9.29819 5.0625V3.75C13.285 3.75 16.5176 6.98194 16.5176 10.9688V13.6877C16.5176 14.3367 16.7281 14.9682 17.1175 15.4873L17.3477 15.7942C17.5921 16.1202 17.9541 16.6956 17.817 17.3702C17.5986 18.4453 16.6632 18.8262 15.8898 18.9654C15.252 19.0802 14.5115 19.0719 13.9217 19.0653C13.7936 19.0639 13.6726 19.0625 13.5613 19.0625H9.29819V17.75H13.5613C13.7042 17.75 13.8477 17.7514 13.9908 17.7528C14.5765 17.7585 15.1551 17.7641 15.6572 17.6737C16.285 17.5607 16.4801 17.3583 16.5308 17.1089C16.5375 17.0759 16.538 17.0199 16.5011 16.9243C16.4627 16.8251 16.3943 16.7106 16.2977 16.5817L16.0675 16.2748C15.5077 15.5285 15.2051 14.6207 15.2051 13.6877V10.9688Z" fill="#959595"/>
<path d="M15.9933 11C18.7525 11 20.9865 8.75983 20.9865 6C20.9865 3.24017 18.7525 1 15.9933 1C13.234 1 11 3.24017 11 6C11 8.75983 13.234 11 15.9933 11Z" fill="#F58B28" stroke="#F5F5F5" stroke-width="2"/>
</svg>
