<svg width="20" height="22" viewBox="0 0 20 22" fill="none" xmlns="http://www.w3.org/2000/svg">
<path d="M7.76913 2.24746C8.80784 0.584182 11.2299 0.584181 12.2687 2.24746L12.9779 3.38314C13.4452 4.13147 14.2541 4.59845 15.1358 4.629L16.4739 4.67537C18.4337 4.74329 19.6448 6.84089 18.7237 8.57208L18.0948 9.75413C17.6804 10.533 17.6804 11.467 18.0948 12.2459L18.7237 13.4279C19.6448 15.1591 18.4337 17.2567 16.4739 17.3246L15.1358 17.371C14.254 17.4016 13.4452 17.8685 12.9779 18.6169L12.2687 19.7525C11.2299 21.4158 8.80784 21.4158 7.76913 19.7525L7.05989 18.6169C6.59256 17.8685 5.78373 17.4016 4.90199 17.371L3.56385 17.3246C1.60405 17.2567 0.393003 15.1591 1.31408 13.4279L1.943 12.2459C2.3574 11.467 2.3574 10.533 1.943 9.75413L1.31408 8.57208C0.393003 6.84089 1.60405 4.74329 3.56385 4.67537L4.90199 4.629C5.78373 4.59845 6.59256 4.13147 7.05989 3.38314L7.76913 2.24746Z" stroke="white" stroke-width="1.5" stroke-linecap="round" stroke-linejoin="round"/>
<circle cx="10" cy="11" r="3" stroke="white" stroke-width="1.5" stroke-linecap="round" stroke-linejoin="round"/>
</svg>
