<svg width="56" height="76" viewBox="0 0 56 76" fill="none" xmlns="http://www.w3.org/2000/svg">
<path d="M50.8664 26.293C50.8664 35.9386 45.3558 44.09 40.0278 51.9723C35.7387 58.319 31.3012 64.8808 29.678 72.2366C29.5847 72.6573 29.3546 73.0331 29.0256 73.3022C28.6966 73.5714 28.2881 73.718 27.8672 73.718C27.4462 73.718 27.0378 73.5714 26.7087 73.3022C26.3797 73.0331 26.1497 72.6573 26.0564 72.2366C24.4308 64.8808 19.9956 58.319 15.7058 51.9723C10.3762 44.09 4.86719 35.9386 4.86719 26.293C4.86719 13.2937 15.1859 2.71875 27.8668 2.71875C40.5477 2.71875 50.8664 13.2905 50.8664 26.293Z" fill="#AA00CC"/>
<path d="M27.8648 37.6429C34.04 37.6429 39.0461 32.5118 39.0461 26.1823C39.0461 19.8528 34.04 14.7217 27.8648 14.7217C21.6896 14.7217 16.6836 19.8528 16.6836 26.1823C16.6836 32.5118 21.6896 37.6429 27.8648 37.6429Z" fill="#EEDDF1"/>
</svg>
