<svg width="20" height="20" viewBox="0 0 20 20" fill="none" xmlns="http://www.w3.org/2000/svg">
<path d="M9.99935 18.2438C5.39685 18.2438 1.66602 14.513 1.66602 9.91048C1.66602 5.30798 5.39685 1.57715 9.99935 1.57715C14.6018 1.57715 18.3327 5.30881 18.3327 9.91048C18.3327 14.5121 14.6018 18.2438 9.99935 18.2438ZM9.99935 5.74381C9.77833 5.74381 9.56637 5.83161 9.41009 5.98789C9.25381 6.14417 9.16601 6.35613 9.16601 6.57715V10.7438C9.16601 10.9648 9.25381 11.1768 9.41009 11.3331C9.56637 11.4894 9.77833 11.5771 9.99935 11.5771C10.2204 11.5771 10.4323 11.4894 10.5886 11.3331C10.7449 11.1768 10.8327 10.9648 10.8327 10.7438V6.57715C10.8327 6.35613 10.7449 6.14417 10.5886 5.98789C10.4323 5.83161 10.2204 5.74381 9.99935 5.74381ZM9.99935 14.0771C10.2204 14.0771 10.4323 13.9893 10.5886 13.8331C10.7449 13.6768 10.8327 13.4648 10.8327 13.2438C10.8327 13.0228 10.7449 12.8108 10.5886 12.6546C10.4323 12.4983 10.2204 12.4105 9.99935 12.4105C9.77833 12.4105 9.56637 12.4983 9.41009 12.6546C9.25381 12.8108 9.16601 13.0228 9.16601 13.2438C9.16601 13.4648 9.25381 13.6768 9.41009 13.8331C9.56637 13.9893 9.77833 14.0771 9.99935 14.0771Z" fill="#AA00CC"/>
</svg>
